<svg width="900" height="520" viewBox="0 0 900 520" fill="none" xmlns="http://www.w3.org/2000/svg">
  <g stroke="#7FA0BC" stroke-width="1.2">

    <line x1="110" y1="100" x2="300" y2="70"/>
    <line x1="110" y1="100" x2="300" y2="180"/>
    <line x1="110" y1="220" x2="300" y2="70"/>
    <line x1="110" y1="220" x2="300" y2="180"/>
    <line x1="110" y1="220" x2="300" y2="290"/>
    <line x1="110" y1="340" x2="300" y2="180"/>
    <line x1="110" y1="340" x2="300" y2="290"/>
    <line x1="110" y1="340" x2="300" y2="400"/>

    <line x1="300" y1="70" x2="500" y2="130"/>
    <line x1="300" y1="70" x2="500" y2="260"/>
    <line x1="300" y1="180" x2="500" y2="130"/>
    <line x1="300" y1="180" x2="500" y2="260"/>
    <line x1="300" y1="180" x2="500" y2="390"/>
    <line x1="300" y1="290" x2="500" y2="130"/>
    <line x1="300" y1="290" x2="500" y2="260"/>
    <line x1="300" y1="290" x2="500" y2="390"/>
    <line x1="300" y1="400" x2="500" y2="260"/>
    <line x1="300" y1="400" x2="500" y2="390"/>

    <line x1="500" y1="130" x2="690" y2="180"/>
    <line x1="500" y1="130" x2="690" y2="330"/>
    <line x1="500" y1="260" x2="690" y2="180"/>
    <line x1="500" y1="260" x2="690" y2="330"/>
    <line x1="500" y1="390" x2="690" y2="180"/>
    <line x1="500" y1="390" x2="690" y2="330"/>

    <line x1="690" y1="180" x2="820" y2="260"/>
    <line x1="690" y1="330" x2="820" y2="260"/>

  </g>

  <g fill="#FFFFFF" stroke="#7FA0BC" stroke-width="2">
    <circle cx="110" cy="100" r="13"/>
    <circle cx="110" cy="220" r="13"/>
    <circle cx="110" cy="340" r="13"/>

    <circle cx="300" cy="70" r="13"/>
    <circle cx="300" cy="180" r="13"/>
    <circle cx="300" cy="290" r="13"/>
    <circle cx="300" cy="400" r="13"/>

    <circle cx="500" cy="130" r="13"/>
    <circle cx="500" cy="260" r="13"/>
    <circle cx="500" cy="390" r="13"/>

    <circle cx="690" cy="180" r="13"/>
    <circle cx="690" cy="330" r="13"/>

    <circle cx="820" cy="260" r="13"/>
  </g>
</svg>